PathFileType	4	(X/Y/Z)	C:\Users\dbl\Desktop\20210112(1)\20210112\bx_y_10_1801.trc
DataRate	CameraRate	NumFrames	NumMarkers	Units	OrigDataRate	OrigDataStartFrame	OrigNumFrames
50.00	50.00	       4	43	mm	50.00	352	       468
Frame#	Time	Top.Head			R.Acromium			L.Acromium			Sternum			R.ASIS			L.ASIS			V.Sacral			R.Thigh.Upper			R.Thigh.Front			R.Thigh.Rear			R.Knee.Lat			R.Knee.Med			R.Shank.Upper			R.Shank.Front			R.Shank.Rear			R.Ankle.Lat			R.Midfoot.Lat			R.Toe.Lat			R.Toe.Tip			R.Toe.Med			R.Ankle.Med			R.Midfoot.Sup			R.Heel			L.Thigh.Upper			L.Thigh.Front			L.Thigh.Rear			L.Knee.Lat			L.Knee.Med			L.Shank.Upper			L.Shank.Front			L.Shank.Rear			L.Ankle.Lat			L.Midfoot.Lat			L.Toe.Lat			L.Toe.Tip			L.Toe.Med			L.Ankle.Med			L.Midfoot.Sup			L.Heel			origin1 front left			origin2 front right			origin 3 back right			origin 4 back leftt			
		X1	Y1	Z1	X2	Y2	Z2	X3	Y3	Z3	X4	Y4	Z4	X5	Y5	Z5	X6	Y6	Z6	X7	Y7	Z7	X8	Y8	Z8	X9	Y9	Z9	X10	Y10	Z10	X11	Y11	Z11	X12	Y12	Z12	X13	Y13	Z13	X14	Y14	Z14	X15	Y15	Z15	X16	Y16	Z16	X17	Y17	Z17	X18	Y18	Z18	X19	Y19	Z19	X20	Y20	Z20	X21	Y21	Z21	X22	Y22	Z22	X23	Y23	Z23	X24	Y24	Z24	X25	Y25	Z25	X26	Y26	Z26	X27	Y27	Z27	X28	Y28	Z28	X29	Y29	Z29	X30	Y30	Z30	X31	Y31	Z31	X32	Y32	Z32	X33	Y33	Z33	X34	Y34	Z34	X35	Y35	Z35	X36	Y36	Z36	X37	Y37	Z37	X38	Y38	Z38	X39	Y39	Z39	X40	Y40	Z40	X41	Y41	Z41	X42	Y42	Z42	X43	Y43	Z43	

352	7.020	-359.98077	88.52640	1543.70483	-468.15646	-82.47843	1259.07092	-463.06155	264.94095	1271.80054	-479.61301	79.55194	1202.53271	-746.57190	-18.83330	944.40497	-723.33777	195.73070	962.85101	-946.29919	91.37517	956.18842	-753.39795	-87.71696	800.68085	-660.82922	-37.37346	789.98108	-692.97369	-80.05732	658.07422	-617.42920	-66.56232	584.75299	-575.49792	42.99539	560.59625	-611.67346	-62.56174	537.10999	-569.25940	-19.46670	484.44904	-678.14209	-58.98518	472.30316	-760.51282	-5.07179	209.64023	-665.50378	-68.63455	161.51193	-624.28772	-80.23980	157.91743	-558.90308	-39.94819	161.50383	-602.95740	18.08967	167.41136	-705.45752	75.55289	212.23047	-673.75482	53.51759	157.49689	-790.52008	59.45783	179.91043	-734.96631	277.46637	817.96649	-657.72192	219.35854	801.15515	-693.86145	289.85577	689.72614	-626.73431	267.20227	592.81519	-554.58893	167.44249	555.21832	-602.56793	268.15833	546.23694	-551.10199	228.46773	498.03101	-659.75165	268.47855	484.43307	-764.08521	222.37526	206.65569	-666.71490	298.43134	160.55756	-629.66052	306.09573	161.32593	-561.34882	261.89474	163.81294	-594.73615	222.28468	173.19537	-702.90009	151.08566	209.80045	-675.10144	174.77866	154.82127	-791.64960	168.88184	188.20259	-528.10229	304.37769	146.56998	-517.65051	-72.08624	142.84125	-876.10040	-78.74277	141.45102	-882.57507	296.15384	144.64169	
353	7.040	-368.86636	86.17874	1561.30115	-472.74615	-84.33232	1274.24707	-467.48233	263.96616	1287.67017	-482.49622	79.26221	1209.56409	-743.78619	-18.68160	949.74011	-720.34155	196.11647	966.30957	-942.93774	91.66515	962.00562	-752.12451	-87.92115	805.81403	-659.05243	-37.46424	792.65845	-693.36151	-79.91993	661.50647	-619.31934	-65.95229	586.46527	-577.46252	43.11298	561.69397	-613.98755	-62.04025	538.44366	-571.36115	-19.21279	485.60153	-680.26068	-58.54016	473.06995	-760.80334	-5.00521	209.37753	-665.47656	-68.75412	161.42422	-624.26062	-80.26949	157.87852	-558.90283	-40.00880	161.51259	-603.03839	17.90681	167.58675	-705.46722	75.47562	212.18257	-673.75140	53.50519	157.57449	-790.48199	59.55465	179.74268	-733.03790	277.23587	823.47107	-655.57861	218.95610	804.51666	-693.48944	289.25818	693.64368	-628.45654	266.54657	595.05811	-556.70886	166.80095	556.56085	-604.85590	267.22324	547.67322	-553.33557	227.80325	499.41278	-661.83423	267.81992	485.43408	-764.31750	222.43390	206.70256	-666.75989	298.50150	160.50826	-629.67603	306.15271	161.32295	-561.43317	262.00626	163.88879	-594.80188	222.36212	173.26097	-702.98633	151.16743	209.97403	-675.04785	174.79079	154.94107	-791.71198	169.03128	188.13826	-528.09924	304.34964	146.53041	-517.63843	-72.07285	142.88599	-876.08380	-78.78221	141.40002	-882.56659	296.16193	144.65231	
354	7.060	-378.06143	83.98903	1578.62976	-477.50336	-86.09138	1289.32581	-472.16760	262.97623	1303.28369	-485.49551	78.92291	1216.78076	-741.00043	-18.54646	955.14600	-717.35303	196.48735	969.81384	-939.61304	92.03468	967.79108	-750.80200	-88.11773	810.92700	-657.27466	-37.52129	795.31183	-693.76611	-79.79015	664.91779	-621.28986	-65.31645	588.16821	-579.54346	43.26522	562.77081	-616.44324	-61.45615	539.77319	-573.54993	-18.93166	486.82571	-682.49280	-58.09713	473.85428	-761.12152	-4.95970	209.14066	-665.46838	-68.91500	161.34872	-624.23499	-80.32378	157.82759	-558.90900	-40.04739	161.52284	-603.14575	17.68116	167.79274	-705.52838	75.40384	212.18674	-673.75073	53.48788	157.63245	-790.46912	59.60798	179.59669	-731.12695	277.03976	828.95721	-653.41412	218.57738	807.79382	-693.15381	288.69543	697.52539	-630.27271	265.95282	597.33179	-558.97339	166.26518	557.92346	-607.26196	266.35983	549.18701	-555.69897	227.14326	500.83826	-664.04449	267.15643	486.40829	-764.58911	222.52554	206.74661	-666.80951	298.58328	160.43787	-629.68427	306.21796	161.31345	-561.53253	262.12112	163.95517	-594.90143	222.46616	173.32260	-703.06445	151.27345	210.09547	-674.99164	174.79681	155.08342	-791.81097	169.21458	188.07059	-528.10297	304.33109	146.48888	-517.63330	-72.07586	142.89651	-876.05920	-78.79128	141.36360	-882.55914	296.16403	144.66089	
355	7.080	-387.55334	81.98029	1595.63782	-482.42795	-87.72205	1304.28662	-477.11871	261.98331	1318.60767	-488.61172	78.53334	1224.18311	-738.21777	-18.42744	960.62915	-714.37372	196.84271	973.36261	-936.26550	92.46976	973.52698	-749.36804	-88.25842	816.03198	-655.49866	-37.51927	797.91241	-694.17279	-79.62066	668.27991	-623.33051	-64.65833	589.86627	-581.77936	43.48104	563.82928	-619.01782	-60.82442	541.09210	-575.83313	-18.65036	488.10709	-684.82599	-57.66196	474.66156	-761.44769	-4.94948	208.96786	-665.50775	-69.11750	161.26434	-624.22424	-80.41541	157.75331	-558.92145	-40.06758	161.53188	-603.27661	17.43109	168.02048	-705.64679	75.32435	212.25371	-673.76080	53.45717	157.68196	-790.49176	59.58330	179.48035	-729.24158	276.91245	834.43243	-651.20081	218.22433	810.94946	-692.83685	288.18423	701.35675	-632.17603	265.39758	599.63257	-561.36694	165.82581	559.31683	-609.76807	265.55078	550.75671	-558.18036	226.48929	502.28918	-666.38538	266.49506	487.37137	-764.88135	222.64677	206.77654	-666.86755	298.68686	160.34062	-629.68854	306.30066	161.29541	-561.64502	262.22641	164.00986	-595.04785	222.61528	173.38399	-703.17792	151.41737	210.15822	-674.93970	174.81116	155.26160	-791.94293	169.42764	188.00177	-528.11243	304.33224	146.45857	-517.63812	-72.09612	142.87656	-876.03857	-78.76776	141.35342	-882.55841	296.16168	144.66399	
